 http://www.imdb.com/title/tt0118929/


General
ID                               : 0 (0x0)
Format                           : BDAV
Format/Info                      : Blu-ray Video
File size                        : 20.3 GiB
Duration                         : 1h 51mn
Overall bit rate                 : 26.0 Mbps
Maximum Overall bit rate         : 48.0 Mbps

Video
ID                               : 4113 (0x1011)
Menu ID                          : 1 (0x1)
Format                           : VC-1
Format profile                   : AP@L3
Codec ID                         : 234
Duration                         : 1h 51mn
Bit rate                         : 22.1 Mbps
Width                            : 1 920 pixels
Height                           : 1 080 pixels
Display aspect ratio             : 16:9
Frame rate                       : 23.976 fps
Chroma subsampling               : 4:2:0
Bit depth                        : 8 bits
Scan type                        : Progressive
Compression mode                 : Lossy
Bits/(Pixel*Frame)               : 0.444
Stream size                      : 17.2 GiB (85%)

Audio #1
ID                               : 4352 (0x1100)
Menu ID                          : 1 (0x1)
Format                           : DTS
Format/Info                      : Digital Theater Systems
Format profile                   : MA / Core
Muxing mode                      : Stream extension
Codec ID                         : 134
Duration                         : 1h 51mn
Bit rate mode                    : Variable
Bit rate                         : 2 158 Kbps / 1 510 Kbps
Channel(s)                       : 8 channels / 6 channels
Channel positions                : Front: L C R, Side: L R, Back: L R, LFE / Front: L C R, Side: L R, LFE
Sampling rate                    : 48.0 KHz
Bit depth                        : 24 bits
Compression mode                 : Lossless / Lossy

Audio #2
ID                               : 4353 (0x1101)
Menu ID                          : 1 (0x1)
Format                           : DTS
Format/Info                      : Digital Theater Systems
Codec ID                         : 130
Duration                         : 1h 51mn
Bit rate mode                    : Constant
Bit rate                         : 256 Kbps
Channel(s)                       : 2 channels
Channel positions                : Front: L R
Sampling rate                    : 48.0 KHz
Bit depth                        : 24 bits
Compression mode                 : Lossy
Stream size                      : 205 MiB (1%)

Audio #3
ID                               : 4354 (0x1102)
Menu ID                          : 1 (0x1)
Format                           : DTS
Format/Info                      : Digital Theater Systems
Codec ID                         : 130
Duration                         : 1h 51mn
Bit rate mode                    : Constant
Bit rate                         : 256 Kbps
Channel(s)                       : 2 channels
Channel positions                : Front: L R
Sampling rate                    : 48.0 KHz
Bit depth                        : 24 bits
Compression mode                 : Lossy
Stream size                      : 205 MiB (1%)

Audio #4
ID                               : 4355 (0x1103)
Menu ID                          : 1 (0x1)
Format                           : DTS
Format/Info                      : Digital Theater Systems
Codec ID                         : 130
Duration                         : 1h 51mn
Bit rate mode                    : Constant
Bit rate                         : 256 Kbps
Channel(s)                       : 2 channels
Channel positions                : Front: L R
Sampling rate                    : 48.0 KHz
Bit depth                        : 24 bits
Compression mode                 : Lossy
Stream size                      : 205 MiB (1%)

